<svg width="1000" height="1000" viewBox="0 0 1000 1000" fill="none" xmlns="http://www.w3.org/2000/svg">
<rect width="1000" height="1000" fill="white"/>
<path d="M351.5 394.5H420.5" stroke="#3F4445" stroke-width="10"/>
<path d="M334.5 441H420.5" stroke="#3F4445" stroke-width="10"/>
<path d="M319 487.5H420.5" stroke="#3F4445" stroke-width="10"/>
<path d="M380.5 535H413.5" stroke="#3F4445" stroke-width="10"/>
<path d="M561.5 411L535.076 526.169C535.025 526.389 535 526.614 535 526.84V535.5H580H483" stroke="#3F4445" stroke-width="10"/>
<path d="M383 363H566.876C568.758 363 570.175 364.712 569.824 366.56L561.676 409.44C561.325 411.288 562.742 413 564.624 413H618.573C625.773 413 632.888 414.555 639.431 417.559L647.118 421.087C655.54 424.953 662.722 431.083 667.862 438.794L673.835 447.753C673.945 447.917 674.038 448.092 674.113 448.275L675.321 451.208C679.026 460.207 680.025 470.091 678.195 479.649L667.966 533.064C667.696 534.478 666.459 535.5 665.02 535.5H656.5H650" stroke="#3F4445" stroke-width="10"/>
<circle cx="448.5" cy="535" r="30" stroke="#55BB75" stroke-width="10"/>
<circle cx="615.5" cy="535" r="30" stroke="#55BB75" stroke-width="10"/>
<path d="M386.273 605.727V629H383.545L370.864 610.727H370.636V629H367.818V605.727H370.545L383.273 624.045H383.5V605.727H386.273ZM418.588 617.364C418.588 619.818 418.145 621.939 417.259 623.727C416.372 625.515 415.156 626.894 413.611 627.864C412.066 628.833 410.3 629.318 408.316 629.318C406.331 629.318 404.566 628.833 403.02 627.864C401.475 626.894 400.259 625.515 399.372 623.727C398.486 621.939 398.043 619.818 398.043 617.364C398.043 614.909 398.486 612.788 399.372 611C400.259 609.212 401.475 607.833 403.02 606.864C404.566 605.894 406.331 605.409 408.316 605.409C410.3 605.409 412.066 605.894 413.611 606.864C415.156 607.833 416.372 609.212 417.259 611C418.145 612.788 418.588 614.909 418.588 617.364ZM415.861 617.364C415.861 615.348 415.524 613.648 414.85 612.261C414.183 610.875 413.278 609.826 412.134 609.114C410.997 608.402 409.725 608.045 408.316 608.045C406.906 608.045 405.63 608.402 404.486 609.114C403.35 609.826 402.444 610.875 401.77 612.261C401.103 613.648 400.77 615.348 400.77 617.364C400.77 619.379 401.103 621.08 401.77 622.466C402.444 623.852 403.35 624.902 404.486 625.614C405.63 626.326 406.906 626.682 408.316 626.682C409.725 626.682 410.997 626.326 412.134 625.614C413.278 624.902 414.183 623.852 414.85 622.466C415.524 621.08 415.861 619.379 415.861 617.364ZM428.125 608.227V605.727H445.58V608.227H438.262V629H435.444V608.227H428.125ZM459.788 605.727V629H456.969V605.727H459.788ZM472.478 629V605.727H486.433V608.227H475.296V616.091H485.387V618.591H475.296V629H472.478ZM501.118 605.727V629H498.299V605.727H501.118ZM532.535 613H529.717C529.551 612.189 529.259 611.477 528.842 610.864C528.433 610.25 527.933 609.735 527.342 609.318C526.759 608.894 526.111 608.576 525.399 608.364C524.687 608.152 523.945 608.045 523.172 608.045C521.763 608.045 520.486 608.402 519.342 609.114C518.206 609.826 517.301 610.875 516.626 612.261C515.96 613.648 515.626 615.348 515.626 617.364C515.626 619.379 515.96 621.08 516.626 622.466C517.301 623.852 518.206 624.902 519.342 625.614C520.486 626.326 521.763 626.682 523.172 626.682C523.945 626.682 524.687 626.576 525.399 626.364C526.111 626.152 526.759 625.837 527.342 625.42C527.933 624.996 528.433 624.477 528.842 623.864C529.259 623.242 529.551 622.53 529.717 621.727H532.535C532.323 622.917 531.937 623.981 531.376 624.92C530.816 625.86 530.119 626.659 529.285 627.318C528.452 627.97 527.517 628.466 526.479 628.807C525.448 629.148 524.346 629.318 523.172 629.318C521.187 629.318 519.422 628.833 517.876 627.864C516.331 626.894 515.115 625.515 514.229 623.727C513.342 621.939 512.899 619.818 512.899 617.364C512.899 614.909 513.342 612.788 514.229 611C515.115 609.212 516.331 607.833 517.876 606.864C519.422 605.894 521.187 605.409 523.172 605.409C524.346 605.409 525.448 605.58 526.479 605.92C527.517 606.261 528.452 606.761 529.285 607.42C530.119 608.072 530.816 608.867 531.376 609.807C531.937 610.739 532.323 611.803 532.535 613ZM545.084 629H542.129L550.675 605.727H553.584L562.129 629H559.175L552.22 609.409H552.039L545.084 629ZM546.175 619.909H558.084V622.409H546.175V619.909ZM568.803 608.227V605.727H586.258V608.227H578.939V629H576.121V608.227H568.803ZM616.315 617.364C616.315 619.818 615.871 621.939 614.985 623.727C614.099 625.515 612.883 626.894 611.337 627.864C609.792 628.833 608.027 629.318 606.042 629.318C604.057 629.318 602.292 628.833 600.746 627.864C599.201 626.894 597.985 625.515 597.099 623.727C596.212 621.939 595.769 619.818 595.769 617.364C595.769 614.909 596.212 612.788 597.099 611C597.985 609.212 599.201 607.833 600.746 606.864C602.292 605.894 604.057 605.409 606.042 605.409C608.027 605.409 609.792 605.894 611.337 606.864C612.883 607.833 614.099 609.212 614.985 611C615.871 612.788 616.315 614.909 616.315 617.364ZM613.587 617.364C613.587 615.348 613.25 613.648 612.576 612.261C611.909 610.875 611.004 609.826 609.86 609.114C608.724 608.402 607.451 608.045 606.042 608.045C604.633 608.045 603.356 608.402 602.212 609.114C601.076 609.826 600.171 610.875 599.496 612.261C598.83 613.648 598.496 615.348 598.496 617.364C598.496 619.379 598.83 621.08 599.496 622.466C600.171 623.852 601.076 624.902 602.212 625.614C603.356 626.326 604.633 626.682 606.042 626.682C607.451 626.682 608.724 626.326 609.86 625.614C611.004 624.902 611.909 623.852 612.576 622.466C613.25 621.08 613.587 619.379 613.587 617.364ZM628.093 629V605.727H635.957C637.775 605.727 639.267 606.038 640.434 606.659C641.601 607.273 642.464 608.117 643.025 609.193C643.586 610.269 643.866 611.492 643.866 612.864C643.866 614.235 643.586 615.451 643.025 616.511C642.464 617.572 641.605 618.405 640.445 619.011C639.286 619.61 637.805 619.909 636.002 619.909H629.639V617.364H635.911C637.154 617.364 638.154 617.182 638.911 616.818C639.677 616.455 640.23 615.939 640.57 615.273C640.919 614.598 641.093 613.795 641.093 612.864C641.093 611.932 640.919 611.117 640.57 610.42C640.222 609.723 639.665 609.186 638.9 608.807C638.135 608.42 637.123 608.227 635.866 608.227H630.911V629H628.093ZM639.048 618.545L644.775 629H641.502L635.866 618.545H639.048Z" fill="#3F4445"/>
<path d="M691.129 250.454C797.436 351.906 800.859 521.662 699.724 632.626C699.715 632.636 699.706 632.646 699.698 632.656L503.81 838.025L303.743 646.987C200.473 543.553 200.109 373.683 304.323 264.481C410.075 153.669 583.256 147.507 691.129 250.454Z" stroke="#3F4445" stroke-width="7"/>
</svg>
